<svg xmlns="http://www.w3.org/2000/svg" viewBox="0 0 1600 1000" width="1600" height="1000">
<defs>
  <style>
    @import url('https://fonts.googleapis.com/css2?family=JetBrains+Mono:wght@400;500;700&amp;family=Cinzel:wght@600;700&amp;family=Newsreader:ital,wght@0,400;0,600;1,400&amp;display=swap');
    .bg { fill: #fbfbf9; }
    .grid-line { stroke: #eae7df; stroke-width: 1; }
    .chase-metal { fill: #232528; stroke: #141517; stroke-width: 4; }
    .chase-inner { fill: #f3efe6; stroke: #ded9cd; stroke-width: 2; }
    .wood-furn { fill: #d8b482; stroke: #b6925e; stroke-width: 1.5; }
    .wood-furn-dark { fill: #c8a370; stroke: #a37f4e; stroke-width: 1.5; }
    .reglet { fill: #e5cb9f; stroke: #cbb082; stroke-width: 1; }
    .quoin-steel { fill: #71767d; stroke: #494d52; stroke-width: 2; }
    .quoin-wedge { fill: #8a8f96; stroke: #5c6066; stroke-width: 1.5; }
    .type-lead { fill: #3a3d42; stroke: #26282b; stroke-width: 1; }
    .type-glyph { fill: #f4efe4; font-family: 'Cinzel', serif; font-weight: 700; }
    .label-mono { font-family: 'JetBrains Mono', monospace; font-size: 11px; fill: #6b665c; }
    .label-title { font-family: 'Cinzel', serif; font-size: 18px; fill: #1f2022; font-weight: 700; letter-spacing: 1.5px; }
    .label-sub { font-family: 'Newsreader', serif; font-style: italic; font-size: 14px; fill: #7c766b; }
    .vector-arrow { stroke: #e11d48; stroke-width: 2.5; marker-end: url(#arrow-red); fill: none; }
    .vector-arrow-blue { stroke: #0284c7; stroke-width: 2; marker-end: url(#arrow-blue); fill: none; }
    .stress-fill { fill: rgba(225, 29, 72, 0.08); stroke: #e11d48; stroke-width: 1.5; stroke-dasharray: 4 2; }
  </style>
  <marker id="arrow-red" viewBox="0 0 10 10" refX="6" refY="5" markerWidth="6" markerHeight="6" orient="auto-start-reverse">
    <path d="M 0 1 L 8 5 L 0 9 z" fill="#e11d48" />
  </marker>
  <marker id="arrow-blue" viewBox="0 0 10 10" refX="6" refY="5" markerWidth="6" markerHeight="6" orient="auto-start-reverse">
    <path d="M 0 1 L 8 5 L 0 9 z" fill="#0284c7" />
  </marker>
  <pattern id="wood-grain" width="40" height="40" patternUnits="userSpaceOnUse">
    <path d="M 0 10 Q 20 8 40 10 M 0 25 Q 20 27 40 25 M 0 38 Q 20 36 40 38" stroke="rgba(140, 95, 45, 0.15)" stroke-width="1.2" fill="none"/>
  </pattern>
</defs>
<rect width="1600" height="1000" class="bg"/>
<line x1="40" y1="40" x2="40" y2="960" class="grid-line" opacity="0.6"/>
<line x1="80" y1="40" x2="80" y2="960" class="grid-line" opacity="0.6"/>
<line x1="120" y1="40" x2="120" y2="960" class="grid-line" opacity="0.6"/>
<line x1="160" y1="40" x2="160" y2="960" class="grid-line" opacity="0.6"/>
<line x1="200" y1="40" x2="200" y2="960" class="grid-line" opacity="0.6"/>
<line x1="240" y1="40" x2="240" y2="960" class="grid-line" opacity="0.6"/>
<line x1="280" y1="40" x2="280" y2="960" class="grid-line" opacity="0.6"/>
<line x1="320" y1="40" x2="320" y2="960" class="grid-line" opacity="0.6"/>
<line x1="360" y1="40" x2="360" y2="960" class="grid-line" opacity="0.6"/>
<line x1="400" y1="40" x2="400" y2="960" class="grid-line" opacity="0.6"/>
<line x1="440" y1="40" x2="440" y2="960" class="grid-line" opacity="0.6"/>
<line x1="480" y1="40" x2="480" y2="960" class="grid-line" opacity="0.6"/>
<line x1="520" y1="40" x2="520" y2="960" class="grid-line" opacity="0.6"/>
<line x1="560" y1="40" x2="560" y2="960" class="grid-line" opacity="0.6"/>
<line x1="600" y1="40" x2="600" y2="960" class="grid-line" opacity="0.6"/>
<line x1="640" y1="40" x2="640" y2="960" class="grid-line" opacity="0.6"/>
<line x1="680" y1="40" x2="680" y2="960" class="grid-line" opacity="0.6"/>
<line x1="720" y1="40" x2="720" y2="960" class="grid-line" opacity="0.6"/>
<line x1="760" y1="40" x2="760" y2="960" class="grid-line" opacity="0.6"/>
<line x1="800" y1="40" x2="800" y2="960" class="grid-line" opacity="0.6"/>
<line x1="840" y1="40" x2="840" y2="960" class="grid-line" opacity="0.6"/>
<line x1="880" y1="40" x2="880" y2="960" class="grid-line" opacity="0.6"/>
<line x1="920" y1="40" x2="920" y2="960" class="grid-line" opacity="0.6"/>
<line x1="960" y1="40" x2="960" y2="960" class="grid-line" opacity="0.6"/>
<line x1="1000" y1="40" x2="1000" y2="960" class="grid-line" opacity="0.6"/>
<line x1="1040" y1="40" x2="1040" y2="960" class="grid-line" opacity="0.6"/>
<line x1="1080" y1="40" x2="1080" y2="960" class="grid-line" opacity="0.6"/>
<line x1="1120" y1="40" x2="1120" y2="960" class="grid-line" opacity="0.6"/>
<line x1="1160" y1="40" x2="1160" y2="960" class="grid-line" opacity="0.6"/>
<line x1="1200" y1="40" x2="1200" y2="960" class="grid-line" opacity="0.6"/>
<line x1="1240" y1="40" x2="1240" y2="960" class="grid-line" opacity="0.6"/>
<line x1="1280" y1="40" x2="1280" y2="960" class="grid-line" opacity="0.6"/>
<line x1="1320" y1="40" x2="1320" y2="960" class="grid-line" opacity="0.6"/>
<line x1="1360" y1="40" x2="1360" y2="960" class="grid-line" opacity="0.6"/>
<line x1="1400" y1="40" x2="1400" y2="960" class="grid-line" opacity="0.6"/>
<line x1="1440" y1="40" x2="1440" y2="960" class="grid-line" opacity="0.6"/>
<line x1="1480" y1="40" x2="1480" y2="960" class="grid-line" opacity="0.6"/>
<line x1="1520" y1="40" x2="1520" y2="960" class="grid-line" opacity="0.6"/>
<line x1="1560" y1="40" x2="1560" y2="960" class="grid-line" opacity="0.6"/>
<line x1="40" y1="40" x2="1560" y2="40" class="grid-line" opacity="0.6"/>
<line x1="40" y1="80" x2="1560" y2="80" class="grid-line" opacity="0.6"/>
<line x1="40" y1="120" x2="1560" y2="120" class="grid-line" opacity="0.6"/>
<line x1="40" y1="160" x2="1560" y2="160" class="grid-line" opacity="0.6"/>
<line x1="40" y1="200" x2="1560" y2="200" class="grid-line" opacity="0.6"/>
<line x1="40" y1="240" x2="1560" y2="240" class="grid-line" opacity="0.6"/>
<line x1="40" y1="280" x2="1560" y2="280" class="grid-line" opacity="0.6"/>
<line x1="40" y1="320" x2="1560" y2="320" class="grid-line" opacity="0.6"/>
<line x1="40" y1="360" x2="1560" y2="360" class="grid-line" opacity="0.6"/>
<line x1="40" y1="400" x2="1560" y2="400" class="grid-line" opacity="0.6"/>
<line x1="40" y1="440" x2="1560" y2="440" class="grid-line" opacity="0.6"/>
<line x1="40" y1="480" x2="1560" y2="480" class="grid-line" opacity="0.6"/>
<line x1="40" y1="520" x2="1560" y2="520" class="grid-line" opacity="0.6"/>
<line x1="40" y1="560" x2="1560" y2="560" class="grid-line" opacity="0.6"/>
<line x1="40" y1="600" x2="1560" y2="600" class="grid-line" opacity="0.6"/>
<line x1="40" y1="640" x2="1560" y2="640" class="grid-line" opacity="0.6"/>
<line x1="40" y1="680" x2="1560" y2="680" class="grid-line" opacity="0.6"/>
<line x1="40" y1="720" x2="1560" y2="720" class="grid-line" opacity="0.6"/>
<line x1="40" y1="760" x2="1560" y2="760" class="grid-line" opacity="0.6"/>
<line x1="40" y1="800" x2="1560" y2="800" class="grid-line" opacity="0.6"/>
<line x1="40" y1="840" x2="1560" y2="840" class="grid-line" opacity="0.6"/>
<line x1="40" y1="880" x2="1560" y2="880" class="grid-line" opacity="0.6"/>
<line x1="40" y1="920" x2="1560" y2="920" class="grid-line" opacity="0.6"/>
<line x1="40" y1="960" x2="1560" y2="960" class="grid-line" opacity="0.6"/>
<g transform="translate(60, 65)">
  <text class="label-title" x="0" y="0">TECHNICAL SCHEMATIC: CAST-IRON CHASE &amp; QUOIN LOCKUP DYNAMICS</text>
  <text class="label-sub" x="0" y="22">Prepress Imposition, Hooke Elasticity of Wood Furniture (σ = E·ε), and Euler Column Buckling in Metal Type Formes</text>
  <text class="label-mono" x="0" y="42">SYSTEM: 19TH-CENTURY WICKERSHAM MECHANICAL QUOIN · BED SIZE: 64×48 PICA · ALLOY: Pb 80% / Sb 15% / Sn 5%</text>
</g>
<g id="cast-iron-chase">
  <!-- Outer Cast Iron Body -->
  <path d="M 80 140 L 980 140 L 980 920 L 80 920 Z 
           M 125 185 L 125 875 L 935 875 L 935 185 Z" 
        class="chase-metal" fill-rule="evenodd" />
  <!-- Corner reinforcement lugs and dovetails -->
  <rect x="72" y="132" width="24" height="24" fill="#3a3d42" stroke="#141517" stroke-width="2"/>
  <rect x="964" y="132" width="24" height="24" fill="#3a3d42" stroke="#141517" stroke-width="2"/>
  <rect x="72" y="904" width="24" height="24" fill="#3a3d42" stroke="#141517" stroke-width="2"/>
  <rect x="964" y="904" width="24" height="24" fill="#3a3d42" stroke="#141517" stroke-width="2"/>
  <text class="label-mono" fill="#888c94" x="95" y="168">HEAVY DUTY FORGED CHASE № 4B</text>
  <text class="label-mono" fill="#888c94" x="760" y="168">TYPE-HEIGHT: 0.918 in (23.32 mm)</text>
  
  <!-- Chase Bed Area (Imposing Stone Surface) -->
  <rect x="125" y="185" width="810" height="690" class="chase-inner" />
</g>
<g id="furniture-head">
  <rect x="135" y="195" width="690" height="80" class="wood-furn" />
  <rect x="135" y="195" width="690" height="80" fill="url(#wood-grain)" />
  <text class="label-mono" x="155" y="240">HARD MAPLE HEAD FURNITURE (10×50 PICA)</text>
  <text class="label-mono" x="655" y="240">MODULUS E = 12.5 GPa</text>
</g>
<g id="furniture-left">
  <rect x="135" y="285" width="90" height="480" class="wood-furn-dark" />
  <rect x="135" y="285" width="90" height="480" fill="url(#wood-grain)" />
  <text class="label-mono" x="145" y="435" transform="rotate(-90 145 435)">GUTTER FURNITURE (8×36 PICA)</text>
</g>
<g id="type-forme-boundary">
  <rect x="231" y="281" width="578" height="488" fill="none" stroke="#2563eb" stroke-width="1.5" stroke-dasharray="6 3"/>
  <text class="label-mono" fill="#2563eb" x="235" y="275">TYPE MATTER ENVELOPE (LOCKED FORME)</text>
</g>
<g transform="translate(245, 300)">
      <rect x="0" y="0" width="550" height="44" class="type-lead" rx="2"/>
      <!-- Letter slug joints -->
      <line x1="0" y1="42" x2="550" y2="42" stroke="#52565e" stroke-width="1"/>
      <text x="275.0" y="32.75" class="type-glyph" font-size="28" text-anchor="middle">IN · PRINCIPIO · ERAT · VERBUM</text>
    </g>
<rect x="245" y="345" width="550" height="2" fill="#b45309" opacity="0.8"/>
<g transform="translate(245, 348)">
      <rect x="0" y="0" width="550" height="36" class="type-lead" rx="2"/>
      <!-- Letter slug joints -->
      <line x1="0" y1="34" x2="550" y2="34" stroke="#52565e" stroke-width="1"/>
      <text x="275.0" y="26.875" class="type-glyph" font-size="22" text-anchor="middle">ET · VERBUM · ERAT · APUD · DEUM</text>
    </g>
<rect x="245" y="385" width="550" height="2" fill="#b45309" opacity="0.8"/>
<g transform="translate(245, 388)">
      <rect x="0" y="0" width="550" height="32" class="type-lead" rx="2"/>
      <!-- Letter slug joints -->
      <line x1="0" y1="30" x2="550" y2="30" stroke="#52565e" stroke-width="1"/>
      <text x="275.0" y="24.25" class="type-glyph" font-size="20" text-anchor="middle">ET · DEUS · ERAT · VERBUM · HOC · ERAT</text>
    </g>
<rect x="245" y="421" width="550" height="2" fill="#b45309" opacity="0.8"/>
<g transform="translate(245, 424)">
      <rect x="0" y="0" width="550" height="36" class="type-lead" rx="2"/>
      <!-- Letter slug joints -->
      <line x1="0" y1="34" x2="550" y2="34" stroke="#52565e" stroke-width="1"/>
      <text x="275.0" y="26.875" class="type-glyph" font-size="22" text-anchor="middle">OMNIA · PER · IPSUM · FACTA · SUNT</text>
    </g>
<rect x="245" y="461" width="550" height="2" fill="#b45309" opacity="0.8"/>
<g transform="translate(245, 464)">
      <rect x="0" y="0" width="550" height="32" class="type-lead" rx="2"/>
      <!-- Letter slug joints -->
      <line x1="0" y1="30" x2="550" y2="30" stroke="#52565e" stroke-width="1"/>
      <text x="275.0" y="24.25" class="type-glyph" font-size="20" text-anchor="middle">ET · SINE · IPSO · FACTUM · EST · NIHIL</text>
    </g>
<rect x="245" y="497" width="550" height="2" fill="#b45309" opacity="0.8"/>
<g transform="translate(245, 500)">
      <rect x="0" y="0" width="550" height="30" class="type-lead" rx="2"/>
      <!-- Letter slug joints -->
      <line x1="0" y1="28" x2="550" y2="28" stroke="#52565e" stroke-width="1"/>
      <text x="275.0" y="22.625" class="type-glyph" font-size="18" text-anchor="middle">QUOD · FACTUM · EST · IN · IPSO · VITA · ERAT</text>
    </g>
<rect x="245" y="531" width="550" height="2" fill="#b45309" opacity="0.8"/>
<g transform="translate(245, 534)">
      <rect x="0" y="0" width="550" height="36" class="type-lead" rx="2"/>
      <!-- Letter slug joints -->
      <line x1="0" y1="34" x2="550" y2="34" stroke="#52565e" stroke-width="1"/>
      <text x="275.0" y="26.875" class="type-glyph" font-size="22" text-anchor="middle">ET · VITA · ERAT · LUX · HOMINUM</text>
    </g>
<rect x="245" y="571" width="550" height="2" fill="#b45309" opacity="0.8"/>
<g transform="translate(245, 574)">
      <rect x="0" y="0" width="550" height="40" class="type-lead" rx="2"/>
      <!-- Letter slug joints -->
      <line x1="0" y1="38" x2="550" y2="38" stroke="#52565e" stroke-width="1"/>
      <text x="275.0" y="29.5" class="type-glyph" font-size="24" text-anchor="middle">ET · LUX · IN · TENEBRIS · LUCET</text>
    </g>
<rect x="245" y="615" width="550" height="2" fill="#b45309" opacity="0.8"/>
<g transform="translate(245, 618)">
      <rect x="0" y="0" width="550" height="30" class="type-lead" rx="2"/>
      <!-- Letter slug joints -->
      <line x1="0" y1="28" x2="550" y2="28" stroke="#52565e" stroke-width="1"/>
      <text x="275.0" y="22.625" class="type-glyph" font-size="18" text-anchor="middle">ET · TENEBRAE · EAM · NON · COMPREHENDERUNT</text>
    </g>
<rect x="245" y="649" width="550" height="2" fill="#b45309" opacity="0.8"/>
<g transform="translate(245, 652)">
      <rect x="0" y="0" width="550" height="26" class="type-lead" rx="2"/>
      <!-- Letter slug joints -->
      <line x1="0" y1="24" x2="550" y2="24" stroke="#52565e" stroke-width="1"/>
      <text x="275.0" y="19.6875" class="type-glyph" font-size="15" text-anchor="middle">—— JOHANNES GUTENBERG · MAINZ MCCCCL ——</text>
    </g>
<g id="furniture-right">
  <rect x="815" y="285" width="25" height="480" class="reglet" />
  <rect x="815" y="285" width="25" height="480" fill="url(#wood-grain)" />
</g>
<g transform="translate(850, 345)">
      <!-- Outer steel cage -->
      <rect x="0" y="0" width="70" height="90" rx="4" class="quoin-steel"/>
      <!-- Opposing cam wedges -->
      <path d="M 10 15 L 60 25 L 60 40 L 10 30 Z" class="quoin-wedge"/>
      <path d="M 10 60 L 60 50 L 60 75 L 10 65 Z" class="quoin-wedge"/>
      <!-- Square Keyhole -->
      <circle cx="35" cy="45" r="16" fill="#2d3034" stroke="#1d1f21" stroke-width="1.5"/>
      <rect x="27" y="37" width="16" height="16" fill="#141517" rx="1"/>
      <text class="label-mono" fill="#ffffff" x="35" y="85" text-anchor="middle" font-size="9">WICKERSHAM</text>
      <!-- Expansion vector arrow pointing left -->
      <line x1="0" y1="45" x2="-22" y2="45" class="vector-arrow" />
    </g>
<g transform="translate(850, 565)">
      <!-- Outer steel cage -->
      <rect x="0" y="0" width="70" height="90" rx="4" class="quoin-steel"/>
      <!-- Opposing cam wedges -->
      <path d="M 10 15 L 60 25 L 60 40 L 10 30 Z" class="quoin-wedge"/>
      <path d="M 10 60 L 60 50 L 60 75 L 10 65 Z" class="quoin-wedge"/>
      <!-- Square Keyhole -->
      <circle cx="35" cy="45" r="16" fill="#2d3034" stroke="#1d1f21" stroke-width="1.5"/>
      <rect x="27" y="37" width="16" height="16" fill="#141517" rx="1"/>
      <text class="label-mono" fill="#ffffff" x="35" y="85" text-anchor="middle" font-size="9">WICKERSHAM</text>
      <!-- Expansion vector arrow pointing left -->
      <line x1="0" y1="45" x2="-22" y2="45" class="vector-arrow" />
    </g>
<g id="furniture-foot">
  <rect x="235" y="780" width="570" height="20" class="reglet" />
  <rect x="235" y="780" width="570" height="20" fill="url(#wood-grain)" />
</g>
<g transform="translate(315, 810)">
      <rect x="0" y="0" width="110" height="55" rx="4" class="quoin-steel"/>
      <path d="M 15 10 L 95 10 L 85 24 L 25 24 Z" class="quoin-wedge"/>
      <path d="M 25 32 L 85 32 L 95 46 L 15 46 Z" class="quoin-wedge"/>
      <circle cx="55" cy="28" r="14" fill="#2d3034" stroke="#1d1f21" stroke-width="1.5"/>
      <rect x="48" y="21" width="14" height="14" fill="#141517" rx="1"/>
      <text class="label-mono" fill="#ffffff" x="55" y="50" text-anchor="middle" font-size="8">FOOT QUOIN</text>
      <!-- Upward expansion arrow -->
      <line x1="55" y1="0" x2="55" y2="-20" class="vector-arrow" />
    </g>
<g transform="translate(555, 810)">
      <rect x="0" y="0" width="110" height="55" rx="4" class="quoin-steel"/>
      <path d="M 15 10 L 95 10 L 85 24 L 25 24 Z" class="quoin-wedge"/>
      <path d="M 25 32 L 85 32 L 95 46 L 15 46 Z" class="quoin-wedge"/>
      <circle cx="55" cy="28" r="14" fill="#2d3034" stroke="#1d1f21" stroke-width="1.5"/>
      <rect x="48" y="21" width="14" height="14" fill="#141517" rx="1"/>
      <text class="label-mono" fill="#ffffff" x="55" y="50" text-anchor="middle" font-size="8">FOOT QUOIN</text>
      <!-- Upward expansion arrow -->
      <line x1="55" y1="0" x2="55" y2="-20" class="vector-arrow" />
    </g>
<g id="stress-field-annotations">
  <!-- Lateral stress vector line -->
  <text class="label-mono" fill="#e11d48" font-weight="700" x="850" y="305">LATERAL COMPRESSION (σ_x = 3.2 MPa)</text>
  <text class="label-mono" fill="#e11d48" font-weight="700" x="315" y="885">VERTICAL LOCKUP (σ_y = 2.8 MPa)</text>
</g>
<g id="analytics-panel" transform="translate(1020, 140)">
  <!-- Card Background -->
  <rect x="0" y="0" width="520" height="780" fill="#ffffff" stroke="#ded9cd" stroke-width="1.5" rx="6"/>
  
  <!-- Panel Header -->
  <rect x="0" y="0" width="520" height="55" fill="#f8f6f0" stroke="#ded9cd" stroke-width="1" rx="6"/>
  <text class="label-title" x="25" y="34" font-size="15">MECHANICS OF IMPOSITION &amp; LOCKUP</text>
  <circle cx="485" cy="28" r="6" fill="#10b981"/>
  <text class="label-mono" fill="#10b981" x="400" y="32">LIFT-TEST OK</text>
  
  <!-- Diagram 1: Stress-Strain Curve of Lead & Wood Assembly -->
  <g transform="translate(30, 80)">
    <text class="label-title" x="0" y="0" font-size="13">1. HOOKE ELASTICITY &amp; YIELD THRESHOLDS</text>
    <text class="label-mono" x="0" y="18">Stress σ (MPa) vs Strain ε (%) for Composite Forme</text>
    
    <!-- Graph axes -->
    <line x1="40" y1="160" x2="440" y2="160" stroke="#888c94" stroke-width="1.5"/>
    <line x1="40" y1="160" x2="40" y2="30" stroke="#888c94" stroke-width="1.5"/>
    <text class="label-mono" x="430" y="178">ε (%)</text>
    <text class="label-mono" x="10" y="35">σ (MPa)</text>
    
    <!-- Zone bands -->
    <!-- Zone 1: Loose (0 to 1.5 MPa) -->
    <rect x="41" y="115" width="100" height="44" fill="rgba(245, 158, 11, 0.12)"/>
    <text class="label-mono" fill="#d97706" x="50" y="140">ZONE I: LOOSE (PI RISK)</text>
    
    <!-- Zone 2: Optimal Lockup (1.5 to 4.2 MPa) -->
    <rect x="141" y="45" width="160" height="114" fill="rgba(16, 185, 129, 0.15)"/>
    <text class="label-mono" fill="#059669" font-weight="700" x="150" y="65">ZONE II: MONOLITHIC LIFT</text>
    
    <!-- Zone 3: Buckling / Springing (>4.2 MPa) -->
    <rect x="301" y="30" width="138" height="129" fill="rgba(225, 29, 72, 0.12)"/>
    <text class="label-mono" fill="#e11d48" x="310" y="50">ZONE III: SPRINGING</text>
    
    <!-- Elastic Curve -->
    <path d="M 40 160 Q 120 140 180 100 T 300 48 Q 360 40 430 38" fill="none" stroke="#1f2937" stroke-width="2.5"/>
    <!-- Point of Lift Test -->
    <circle cx="210" cy="80" r="5" fill="#10b981" stroke="#ffffff" stroke-width="2"/>
    <text class="label-mono" fill="#047857" font-weight="700" x="220" y="84">OPTIMAL LOCKUP (P = 3.2 MPa)</text>
    
    <!-- Point of Buckling -->
    <circle cx="330" cy="45" r="5" fill="#e11d48" stroke="#ffffff" stroke-width="2"/>
    <text class="label-mono" fill="#b91c1c" x="340" y="42">EULER CRITICAL P_cr</text>
  </g>
  
  <!-- Diagram 2: Euler Column Buckling (Arching of Type Lines) -->
  <g transform="translate(30, 290)">
    <text class="label-title" x="0" y="0" font-size="13">2. EULER BUCKLING OF OVER-TIGHTENED TYPE</text>
    <text class="label-mono" x="0" y="18">Out-of-Plane Arching Displacement: w(x) = w_max · sin(πx / L)</text>
    
    <!-- Flat vs Buckled comparison -->
    <!-- Case A: Ideal Flat Bed (Lift Test) -->
    <g transform="translate(20, 40)">
      <rect x="0" y="0" width="400" height="24" fill="#e5e7eb" stroke="#9ca3af" stroke-width="1"/>
      <text class="label-mono" fill="#111827" x="12" y="16">PERFECTLY PLANED TYPE-HEIGHT: 0.9180 in (FLAT IMPRESSION)</text>
      <circle cx="380" cy="12" r="4" fill="#10b981"/>
    </g>
    
    <!-- Case B: Buckled / Springing Form -->
    <g transform="translate(20, 85)">
      <!-- Arched line -->
      <path d="M 0 35 Q 200 -15 400 35 L 400 50 Q 200 0 0 50 Z" fill="#fee2e2" stroke="#e11d48" stroke-width="1.5"/>
      <line x1="200" y1="35" x2="200" y2="-5" stroke="#e11d48" stroke-width="1.5" stroke-dasharray="3 2" marker-end="url(#arrow-red)"/>
      <text class="label-mono" fill="#dc2626" x="210" y="15">Δh = +0.035 in (SPRINGING ARCH)</text>
      <text class="label-mono" fill="#991b1b" x="12" y="65">CRUSHED SERIFS &amp; INK SQUASH UNDER ROLLER</text>
    </g>
  </g>
  
  <!-- Diagram 3: Hamilton Wood Furniture Pica Matrix -->
  <g transform="translate(30, 485)">
    <text class="label-title" x="0" y="0" font-size="13">3. COMPRESSION SPECIFICATIONS</text>
    
    <g transform="translate(0, 25)">
      <rect x="0" y="0" width="460" height="190" fill="#f9fafb" stroke="#e5e7eb" rx="4"/>
      
      <!-- Table Headers -->
      <text class="label-mono" font-weight="700" fill="#374151" x="15" y="24">COMPONENT</text>
      <text class="label-mono" font-weight="700" fill="#374151" x="150" y="24">MATERIAL</text>
      <text class="label-mono" font-weight="700" fill="#374151" x="260" y="24">ELASTIC MODULUS</text>
      <text class="label-mono" font-weight="700" fill="#374151" x="390" y="24">ROLE</text>
      <line x1="10" y1="34" x2="450" y2="34" stroke="#d1d5db" stroke-width="1"/>
      
      <!-- Row 1 -->
      <text class="label-mono" x="15" y="55">Type Metal</text>
      <text class="label-mono" x="150" y="55">Pb80/Sb15/Sn5</text>
      <text class="label-mono" x="260" y="55">E ≈ 28 GPa</text>
      <text class="label-mono" fill="#2563eb" x="390" y="55">Letterform</text>
      
      <!-- Row 2 -->
      <text class="label-mono" x="15" y="85">Head Wood</text>
      <text class="label-mono" x="150" y="85">Hard Rock Maple</text>
      <text class="label-mono" x="260" y="85">E ≈ 12.5 GPa</text>
      <text class="label-mono" fill="#d97706" x="390" y="85">Cushion</text>
      
      <!-- Row 3 -->
      <text class="label-mono" x="15" y="115">Chase Frame</text>
      <text class="label-mono" x="150" y="115">Cast Iron</text>
      <text class="label-mono" x="260" y="115">E ≈ 170 GPa</text>
      <text class="label-mono" fill="#111827" x="390" y="115">Rigid Wall</text>
      
      <!-- Row 4 -->
      <text class="label-mono" x="15" y="145">Quoin Wedge</text>
      <text class="label-mono" x="150" y="145">Hardened Steel</text>
      <text class="label-mono" x="260" y="145">E ≈ 210 GPa</text>
      <text class="label-mono" fill="#e11d48" x="390" y="145">Expander</text>
      
      <!-- Row 5 -->
      <text class="label-mono" x="15" y="175">Brass Reglet</text>
      <text class="label-mono" x="150" y="175">Cold-Rolled Brass</text>
      <text class="label-mono" x="260" y="175">E ≈ 105 GPa</text>
      <text class="label-mono" fill="#8b5cf6" x="390" y="175">Precision</text>
    </g>
  </g>
  
  <!-- Footer Status -->
  <text class="label-mono" fill="#9ca3af" x="30" y="740">DESIGN MINDS · CHAPTER 22 ARCHITECTURAL RESEARCH · MIT LICENSED</text>
</g>
<g transform="translate(80, 945)">
  <rect x="0" y="0" width="1440" height="35" fill="#f3efe6" stroke="#ded9cd" rx="3"/>
  <text class="label-mono" x="20" y="22">PLATE 22: THE LETTERPRESS QUOIN COMPRESSION FIELD · VERIFICATION BY GEMINI NOON MIND · 2026-09-23</text>
  <text class="label-mono" x="1220" y="22">1 PICA = 12 PTS = 4.233 mm · TYPE HIGH = 23.32 mm</text>
</g>
</svg>